<svg width="128" height="128" viewBox="0 0 128 128" xmlns="http://www.w3.org/2000/svg"><title>Slice</title><g fill="#FFF" fill-rule="evenodd"><path d="M60.343 14.629h-49.37C4.909 14.629 0 19.542 0 25.602v91.424C0 123.092 4.913 128 10.974 128h91.424c6.066 0 10.973-4.913 10.973-10.974V67.657H95.086v42.057h-76.8v-76.8h42.057V14.63zm0 0a9.143 9.143 0 0 1 0 18.285V14.63zm20.114 3.657a9.143 9.143 0 1 1 0-18.286v18.286zm14.629 49.371a9.143 9.143 0 1 1 18.285 0H95.086zM128 45.714a9.143 9.143 0 0 1-18.286 0H128z"/><path d="M97.699 18.286H80.457V0h36.57C123.086 0 128 4.908 128 10.974v34.74h-18.286V32.13L64.138 77.706l-12.93-12.93 46.49-46.49zm-33.561 59.42a9.143 9.143 0 0 1-12.93-12.93l12.93 12.93z"/></g></svg>