<svg width="128" height="128" viewBox="0 0 128 128" xmlns="http://www.w3.org/2000/svg"><title>Slice</title><path d="M54.78 114.654c-.156-.182-.721-.85-.703-.829-4.367-5.15-7.89-7.31-14.7-7.31H34.38l.009-43.373h5.442l.445-.097c5.11-1.112 9.57-4.952 14.02-11.192 3.216-4.508 6.075-9.625 10.437-18.244 6.803-13.442 6.98-13.783 9.385-17.618 3.552-5.665 6.13-7.802 7.5-7.448 2.863.74 3.926 5.89 2.444 14.894-.52 3.153-1.316 6.541-2.316 10.027a121.889 121.889 0 0 1-2.084 6.557 98.625 98.625 0 0 1-.925 2.535l-2.264 5.776h28.787c7.015 0 12.697 5.68 12.697 12.692v45.494c0 7.01-5.687 12.707-12.704 12.725-2.888-.004-6.994.005-12.613.033-8.534.044-18.569.127-30.114.257-3.406-.578-5.113-1.79-7.747-4.879zm35.102-78.857c1.083-3.78 1.953-7.478 2.53-10.985.9-5.459 1.055-10.197.249-14.1-1.096-5.31-4.036-9.099-8.925-10.363-6.34-1.638-11.403 2.558-16.788 11.147-2.614 4.169-2.768 4.465-9.766 18.292-8.154 16.11-13.339 23.499-18.316 24.891H18.52c-9.355 0-16.931 7.577-16.931 16.929V98.05c0 9.35 7.575 16.928 16.922 16.928h20.864c3.89 0 5.333.884 8.246 4.32l.716.846c3.914 4.592 7.264 6.892 13.233 7.807l.689.048c11.68-.132 21.818-.216 30.423-.26 5.602-.028 9.69-.037 12.272-.034 12-.03 21.465-9.509 21.465-21.187V61.024c0-11.688-9.472-21.155-21.16-21.155H88.64c.424-1.313.84-2.675 1.242-4.072z" fill="#000" fill-rule="evenodd"/></svg>